<?xml version="1.0" encoding="UTF-8"?><svg id="uuid-f20f2208-cf76-4b08-a8b6-7d4d89466008" xmlns="http://www.w3.org/2000/svg" viewBox="0 0 1761.66 317.78"><g id="uuid-616923e4-312e-446e-b763-699232a70471"><path d="m477.74,232.41c0-19.23,15.41-35.09,34.28-35.09,6.68,0,12.38,2.05,16.92,5.25l-1.07,2.76c-4.27-3.29-9.53-5.17-15.94-5.17-17.19,0-31.26,14.52-31.26,32.24,0,15.23,10.42,26,25.38,26,5.52,0,10.51-1.51,14.6-3.74v3.12c-4.27,2.14-9.26,3.47-14.6,3.47-16.56,0-28.32-12.2-28.32-28.85Z" style="fill:#fd4e4f;"/><path d="m528.64,243.19c0-12.11,9.88-21.91,21.99-21.91,10.33,0,18.17,7.75,18.17,17.9,0,12.11-9.71,22-21.82,22-10.42,0-18.34-7.75-18.34-17.99Zm37.49-3.92c0-8.82-6.77-15.41-15.67-15.41-10.51,0-19.06,8.64-19.06,19.23,0,8.82,6.77,15.49,15.76,15.49,10.42,0,18.97-8.73,18.97-19.32Z" style="fill:#fd4e4f;"/><path d="m623.63,195.19l-12.64,65.27h-2.76l1.51-7.66c-3.83,5.08-9.88,8.37-16.74,8.37-10.33,0-18.26-7.75-18.26-17.99,0-12.11,9.88-21.91,21.91-21.91,8.46,0,14.69,4.99,16.74,12.29l7.3-37.49,2.94-.89Zm-11.49,44.08c0-8.82-6.68-15.41-15.58-15.41-10.51,0-19.06,8.64-19.06,19.23,0,8.82,6.77,15.49,15.76,15.49,10.42,0,18.88-8.73,18.88-19.32Z" style="fill:#fd4e4f;"/><path d="m630.52,222.44l3.03-.89-7.66,38.92h-2.76l7.39-38.02Zm1.96-16.39c0-1.51,1.25-2.76,2.76-2.76,1.34,0,2.4.98,2.4,2.32,0,1.6-1.34,2.85-2.85,2.85-1.25,0-2.31-.98-2.31-2.4Z" style="fill:#fd4e4f;"/><path d="m674.05,237.93l-4.36,22.53h-2.76l4.36-22.44c1.78-9.17-2.58-14.16-10.24-14.16s-14.43,5.61-16.3,14.87l-4.18,21.73h-2.76l7.39-38.02,2.85-.89-1.6,8.01c3.47-5.52,8.99-8.28,15.05-8.28,9.17,0,14.52,6.32,12.56,16.65Z" style="fill:#fd4e4f;"/><path d="m720.02,223.42l-11.75-.27c4.99,2.32,8.19,7.12,8.19,13.09,0,8.55-6.23,15.85-14.6,17.72,4.27,2.14,7.12,6.41,7.12,11.49,0,8.99-7.57,16.21-16.65,16.21-8.19,0-14.25-5.7-14.16-13.8l2.67-1.16c-.71,6.95,4.36,12.56,11.58,12.56,7.66,0,13.98-6.23,13.98-13.71,0-6.23-4.99-10.95-11.67-10.95-3.56,0-6.95,1.34-9.53,3.74l-1.07-2.23c1.87-1.6,4.01-2.67,6.41-3.21-5.17-2.4-8.55-7.39-8.55-13.54,0-9.17,7.21-17.9,19.5-18.26l19.68-.62-1.16,2.94Zm-19.41.36c-8.73,0-15.85,7.03-15.85,15.49,0,7.3,5.61,12.82,13.09,12.82,8.73,0,15.94-7.12,15.94-15.76,0-7.21-5.61-12.56-13.18-12.56Z" style="fill:#fd4e4f;"/><path d="m785.47,221.99l-43.46,58.95h-3.38l20.21-27.25-11.75-31.7h2.94l10.69,29.12,21.46-29.12h3.29Z" style="fill:#fd4e4f;"/><path d="m784.09,243.19c0-12.11,9.88-21.91,22-21.91,10.33,0,18.17,7.75,18.17,17.9,0,12.11-9.71,22-21.82,22-10.42,0-18.34-7.75-18.34-17.99Zm37.49-3.92c0-8.82-6.77-15.41-15.67-15.41-10.51,0-19.06,8.64-19.06,19.23,0,8.82,6.77,15.49,15.76,15.49,10.42,0,18.97-8.73,18.97-19.32Z" style="fill:#fd4e4f;"/><path d="m867.53,221.55l-7.57,38.92h-2.67l1.42-7.39c-3.47,5.43-8.9,8.1-14.87,8.1-8.99,0-14.34-6.32-12.38-16.65l4.28-22.08,2.94-.89-4.45,22.89c-1.78,9.17,2.58,14.16,10.06,14.16,7.93,0,14.34-5.61,16.21-14.87l4.1-21.28,2.94-.89Z" style="fill:#fd4e4f;"/><path d="m897.45,221.28l-.53,2.94c-9.44,0-16.12,5.25-18.25,16.21l-3.92,20.04h-2.76l7.39-38.02,2.85-.89-1.78,8.82c3.65-5.79,9.53-9.08,17.01-9.08Z" style="fill:#fd4e4f;"/><path d="m959.34,221.99l-26.8,40.25-11.13-40.25h2.85l9.17,34.2,22.62-34.2h3.29Z" style="fill:#fd4e4f;"/><path d="m966.3,222.44l3.03-.89-7.66,38.92h-2.76l7.39-38.02Zm1.96-16.39c0-1.51,1.25-2.76,2.76-2.76,1.33,0,2.4.98,2.4,2.32,0,1.6-1.34,2.85-2.85,2.85-1.25,0-2.32-.98-2.32-2.4Z" style="fill:#fd4e4f;"/><path d="m970.58,256.37l1.07-2.58c3.38,3.12,7.12,4.9,11.04,4.9,5.34,0,8.91-3.38,8.91-8.37,0-4.45-3.21-6.86-6.77-8.46l-1.96-.89c-4.27-2.05-6.59-5.25-6.59-9.44,0-6.06,4.99-10.24,11.31-10.24,3.47,0,7.21,1.16,10.42,3.47l-1.07,2.49c-2.94-2.05-6.23-3.47-9.53-3.47-4.72,0-8.37,3.21-8.37,7.66,0,3.12,1.78,5.52,5.25,7.21l1.87.8c4.45,1.96,8.19,5.08,8.19,10.69,0,6.59-4.81,11.04-11.75,11.04-4.45,0-8.55-1.78-12.02-4.81Z" style="fill:#fd4e4f;"/><path d="m1008.53,222.44l3.03-.89-7.66,38.92h-2.76l7.39-38.02Zm1.96-16.39c0-1.51,1.25-2.76,2.76-2.76,1.34,0,2.4.98,2.4,2.32,0,1.6-1.34,2.85-2.85,2.85-1.25,0-2.31-.98-2.31-2.4Z" style="fill:#fd4e4f;"/><path d="m1016.24,243.19c0-12.11,9.88-21.91,22-21.91,10.33,0,18.17,7.75,18.17,17.9,0,12.11-9.71,22-21.82,22-10.42,0-18.34-7.75-18.34-17.99Zm37.49-3.92c0-8.82-6.77-15.41-15.67-15.41-10.51,0-19.06,8.64-19.06,19.23,0,8.82,6.77,15.49,15.76,15.49,10.42,0,18.97-8.73,18.97-19.32Z" style="fill:#fd4e4f;"/><path d="m1097.78,237.93l-4.36,22.53h-2.76l4.36-22.44c1.78-9.17-2.58-14.16-10.24-14.16s-14.43,5.61-16.3,14.87l-4.18,21.73h-2.76l7.39-38.02,2.85-.89-1.6,8.01c3.47-5.52,8.99-8.28,15.05-8.28,9.17,0,14.52,6.32,12.56,16.65Z" style="fill:#fd4e4f;"/><path d="m1155.93,195.1l-.53,2.58h-.62c-6.59,0-11.49,3.65-13.18,12.29l-2.32,12.02h10.87l-.45,2.58h-10.95l-6.95,35.89h-2.76l7.04-35.89h-6.23l1.07-2.58h5.61l2.4-12.11c1.96-10.42,8.1-14.78,16.12-14.78h.89Z" style="fill:#fd4e4f;"/><path d="m1175.19,221.28l-.53,2.94c-9.44,0-16.12,5.25-18.26,16.21l-3.92,20.04h-2.76l7.39-38.02,2.85-.89-1.78,8.82c3.65-5.79,9.53-9.08,17.01-9.08Z" style="fill:#fd4e4f;"/><path d="m1173.86,243.19c0-12.11,9.88-21.91,22-21.91,10.33,0,18.17,7.75,18.17,17.9,0,12.11-9.71,22-21.82,22-10.42,0-18.34-7.75-18.34-17.99Zm37.49-3.92c0-8.82-6.77-15.41-15.67-15.41-10.51,0-19.06,8.64-19.06,19.23,0,8.82,6.77,15.49,15.76,15.49,10.42,0,18.97-8.73,18.97-19.32Z" style="fill:#fd4e4f;"/><path d="m1279.54,237.84l-4.45,22.62h-2.76l4.45-22.62c1.69-8.55-2.14-13.98-8.9-13.98-7.39,0-13.36,5.52-15.14,14.78l-4.19,21.82h-2.76l4.36-22.62c1.69-8.55-2.23-13.98-8.91-13.98-7.48,0-13.36,5.61-15.14,14.78l-4.18,21.82h-2.76l7.39-38.02,2.85-.89-1.6,7.84c3.29-5.25,8.37-8.1,14.07-8.1s10.24,3.47,11.13,9.62c3.38-6.14,9.08-9.62,15.4-9.62,8.02,0,13.09,6.23,11.13,16.56Z" style="fill:#fd4e4f;"/><path d="m1305.9,256.37l1.07-2.58c3.38,3.12,7.12,4.9,11.04,4.9,5.34,0,8.9-3.38,8.9-8.37,0-4.45-3.21-6.86-6.77-8.46l-1.96-.89c-4.27-2.05-6.59-5.25-6.59-9.44,0-6.06,4.99-10.24,11.31-10.24,3.47,0,7.21,1.16,10.42,3.47l-1.07,2.49c-2.94-2.05-6.23-3.47-9.53-3.47-4.72,0-8.37,3.21-8.37,7.66,0,3.12,1.78,5.52,5.25,7.21l1.87.8c4.45,1.96,8.19,5.08,8.19,10.69,0,6.59-4.81,11.04-11.76,11.04-4.45,0-8.55-1.78-12.02-4.81Z" style="fill:#fd4e4f;"/><path d="m1343.71,250.49c-.98,4.99.89,7.93,5.52,7.93,1.87,0,3.56-.36,5.17-.98l-.53,2.76c-1.34.45-3.12.8-4.9.8-6.05,0-9.17-4.27-8.01-10.51l5.08-25.91h-5.97l1.07-2.58h5.43l1.96-9.97,3.03-1.69-2.32,11.67h12.11l-.54,2.58h-12.02l-5.08,25.91Z" style="fill:#fd4e4f;"/><path d="m1391.42,235.79l-3.29,16.65-1.25,8.01h-2.67l.62-4.54c-2.94,3.21-7.21,5.25-11.93,5.25-7.75,0-13.27-5.43-13.27-12.82,0-8.55,7.3-15.49,16.21-15.49,5.61,0,9.97,2.94,11.93,7.12l.8-3.92c1.69-8.37-1.6-12.02-9.53-12.02-3.03,0-6.23.53-9.35,1.6l1.16-2.76c2.58-.89,5.79-1.42,8.64-1.42,9.26,0,13.8,4.9,11.93,14.34Zm-4.81,9.88c0-6.06-4.45-10.33-10.87-10.33-7.39,0-13.45,5.79-13.45,12.91,0,6.06,4.63,10.42,11.04,10.42,7.3,0,13.27-5.88,13.27-13Z" style="fill:#fd4e4f;"/><path d="m1423.15,221.28l-.54,2.94c-9.44,0-16.12,5.25-18.25,16.21l-3.92,20.04h-2.76l7.39-38.02,2.85-.89-1.78,8.82c3.65-5.79,9.53-9.08,17.01-9.08Z" style="fill:#fd4e4f;"/><path d="m1431.1,250.49c-.98,4.99.89,7.93,5.52,7.93,1.87,0,3.56-.36,5.16-.98l-.53,2.76c-1.34.45-3.12.8-4.9.8-6.06,0-9.17-4.27-8.01-10.51l5.08-25.91h-5.97l1.07-2.58h5.43l1.96-9.97,3.03-1.69-2.31,11.67h12.11l-.53,2.58h-12.02l-5.08,25.91Z" style="fill:#fd4e4f;"/><path d="m1477.05,250.49c-.98,4.99.89,7.93,5.52,7.93,1.87,0,3.56-.36,5.17-.98l-.54,2.76c-1.33.45-3.12.8-4.9.8-6.06,0-9.17-4.27-8.02-10.51l5.08-25.91h-5.97l1.07-2.58h5.43l1.96-9.97,3.03-1.69-2.32,11.67h12.11l-.53,2.58h-12.02l-5.08,25.91Z" style="fill:#fd4e4f;"/><path d="m1493.67,243.19c0-12.11,9.88-21.91,22-21.91,10.33,0,18.17,7.75,18.17,17.9,0,12.11-9.71,22-21.82,22-10.42,0-18.34-7.75-18.34-17.99Zm37.49-3.92c0-8.82-6.77-15.41-15.67-15.41-10.51,0-19.06,8.64-19.06,19.23,0,8.82,6.77,15.49,15.76,15.49,10.42,0,18.97-8.73,18.97-19.32Z" style="fill:#fd4e4f;"/><path d="m1595.37,251.56l1.07,2.58c-4.81,4.27-10.69,7.03-17.28,7.03-10.51,0-18.26-7.75-18.26-17.99,0-12.11,9.88-21.91,21.82-21.91,9.35,0,15.58,5.88,16.74,14.96l-35.53,9.88c1.34,7.3,7.48,12.47,15.32,12.47,6.41,0,11.84-2.85,16.12-7.03Zm-31.7-8.46v.53l32.68-9.17c-1.6-7.21-7.12-10.6-13.71-10.6-10.42,0-18.97,8.64-18.97,19.23Z" style="fill:#fd4e4f;"/><path d="m1639.75,237.93l-4.36,22.53h-2.76l4.36-22.44c1.78-9.17-2.58-14.16-10.24-14.16s-14.43,5.61-16.3,14.87l-4.19,21.73h-2.76l7.39-38.02,2.85-.89-1.6,8.01c3.47-5.52,8.99-8.28,15.05-8.28,9.17,0,14.51,6.32,12.56,16.65Z" style="fill:#fd4e4f;"/><path d="m1695.82,195.19l-12.64,65.27h-2.76l1.51-7.66c-3.83,5.08-9.88,8.37-16.74,8.37-10.33,0-18.26-7.75-18.26-17.99,0-12.11,9.88-21.91,21.91-21.91,8.46,0,14.69,4.99,16.74,12.29l7.3-37.49,2.94-.89Zm-11.49,44.08c0-8.82-6.68-15.41-15.58-15.41-10.51,0-19.06,8.64-19.06,19.23,0,8.82,6.77,15.49,15.76,15.49,10.42,0,18.88-8.73,18.88-19.32Z" style="fill:#fd4e4f;"/><path d="m1695.54,258.24c0-1.87,1.6-3.21,3.29-3.21,1.51,0,2.67,1.16,2.67,2.58,0,1.96-1.6,3.29-3.21,3.29s-2.76-1.16-2.76-2.67Z" style="fill:#fd4e4f;"/><path d="m416.16,154.49l4.95-21.18c6.32,4.27,12.3,6.66,19.13,6.66,11.44,0,17.93-6.15,17.93-22.03V42.62l24.26-2.9v81.3c0,27.16-15.54,42.02-38.6,42.02-10.93,0-20.15-3.59-27.67-8.54Z" style="fill:#6d0101;"/><path d="m565.46,134.34h-42.36l-11.45,26.48h-26.47l59.1-123.83,59.27,123.83h-26.65l-11.44-26.48Zm-8.88-20.67l-12.3-28.52-12.3,28.52h24.6Z" style="fill:#6d0101;"/><path d="m717.05,165.94l-79.6-74.81v69.69h-24.25V36.12l79.6,74.47V42.62l24.25-2.9v126.23Z" style="fill:#6d0101;"/><path d="m802.49,160.81l-37.92-56.37v56.37h-24.25V42.62l24.25-2.9v54.66l36.21-53.12h28.35l-41.17,57.73,43.04,61.83h-28.52Z" style="fill:#6d0101;"/><path d="m898.68,116.06v44.75h-24.25v-44.75l-37.41-74.81h26.82l22.72,48.68,22.55-48.68h26.99l-37.41,74.81Z" style="fill:#6d0101;"/><path d="m1039.26,160.81l-30.75-49.02v49.02h-24.08V41.25h34.33c27.67,0,43.73,15.89,43.73,37.58,0,16.74-10.25,29.72-26.64,34.67l32.28,47.31h-28.87Zm-30.75-60.98h7.35c13.83,0,22.03-8.03,22.03-19.47s-8.2-18.96-22.03-18.96h-7.35v38.43Z" style="fill:#6d0101;"/><path d="m1073.5,101.03c0-34.84,27.84-62.17,63.54-62.17s63.54,27.33,63.54,62.17-28.01,62.17-63.54,62.17-63.54-27.33-63.54-62.17Zm102.14,0c0-22.03-16.91-39.11-38.6-39.11s-38.6,17.08-38.6,39.11,16.91,38.94,38.6,38.94,38.6-17.08,38.6-38.94Z" style="fill:#6d0101;"/><path d="m1298.03,127.68c0,19.64-15.89,33.14-39.63,33.14h-40.99V41.25h40.14c22.21,0,37.07,12.81,37.07,31.26,0,11.79-6.66,21.18-17.76,26.48,13.15,4.95,21.18,15.37,21.18,28.7Zm-56.54-67.13v30.4h12.47c9.91,0,16.91-6.32,16.91-15.54s-7-14.86-16.91-14.86h-12.47Zm31.77,65.25c0-9.39-7.34-15.71-17.76-15.71h-14.01v31.43h14.01c10.42,0,17.76-6.49,17.76-15.71Z" style="fill:#6d0101;"/><path d="m1308.12,101.03c0-34.84,27.84-62.17,63.54-62.17s63.54,27.33,63.54,62.17-28.01,62.17-63.54,62.17-63.54-27.33-63.54-62.17Zm102.14,0c0-22.03-16.91-39.11-38.6-39.11s-38.6,17.08-38.6,39.11,16.91,38.94,38.6,38.94,38.6-17.08,38.6-38.94Z" style="fill:#6d0101;"/><path d="m1493.16,63.97v96.85h-24.25V63.97h-31.43l3.59-22.72h79.94l3.42,22.72h-31.26Z" style="fill:#6d0101;"/><path d="m1535.28,42.79l24.26-3.07v121.1h-24.26V42.79Z" style="fill:#6d0101;"/><path d="m1576.35,101.03c0-34.84,28.01-62.17,64.39-62.17,10.93,0,21.18,2.39,29.89,6.66l-3.76,23.91c-7.52-4.44-16.74-7.34-25.96-7.34-22.38,0-39.46,16.91-39.46,38.94s17.08,38.77,39.46,38.77c9.39,0,18.62-2.9,27.5-8.37l3.76,23.91c-9.91,5.12-21.01,7.86-32.11,7.86-35.87,0-63.71-27.33-63.71-62.17Z" style="fill:#6d0101;"/><path d="m1682.75,150.57l3.76-23.06c11.1,9.05,23.23,14.35,34.5,14.35s16.74-6.32,16.74-14.01c0-6.32-3.59-11.96-15.2-15.71l-7.34-2.39c-21.52-7-29.38-20.5-29.38-36.04,0-19.81,15.54-34.84,38.43-34.84,10.42,0,21.69,2.9,32.96,8.71l-3.59,22.55c-11.1-6.66-21.01-10.25-29.72-10.25-9.39,0-14.69,5.64-14.69,12.81,0,6.49,3.59,11.61,15.88,15.54l7.34,2.39c21.01,6.83,29.21,20.67,29.21,35.87,0,19.3-13.84,36.72-40.31,36.72-15.71,0-28.87-5.98-38.6-12.64Z" style="fill:#6d0101;"/><rect width="343.32" height="317.78" style="fill:#6d0101;"/><path d="m249.5,184.3c3.4-1.96,22.22-12.84,25.16-14.53v-39.65c-18.77-10.83-49.75-28.72-68.67-39.64-1.93,1.11-31.45,18.16-34.33,19.82-4.17-2.41-62.79-36.25-68.67-39.64-8.61,4.98-25.79,14.88-34.33,19.82l59.49,34.34,38.92-11.87c-6.28,3.63-23.72,13.69-29.74,17.17v68.7l29.74,27.77c-18.76-10.84-45.37-26.2-64.08-37l-34.33,19.82c19.04,11,49.56,28.63,68.67,39.65,3.01-1.74,32.28-18.65,34.32-19.83v-39.64s103.01,59.47,103.01,59.47v-39.65c-15.94-9.2-48.24-27.85-64.08-36.99l38.92,11.88Zm-43.51-14.53c-6.57-3.8-28.12-16.25-34.32-19.82,18.36-10.62,45.54-26.3,64.06-37l-20.56,22.47,25.16,14.53c-8.62,4.98-25.79,14.89-34.34,19.82Z" style="fill:#fd4e4f;"/></g></svg>