<?xml version="1.0" encoding="UTF-8"?><svg id="uuid-f9a4f1b7-4b87-4bfb-a4d2-32e02788dd69" xmlns="http://www.w3.org/2000/svg" viewBox="0 0 1761.66 317.78"><g id="uuid-abd3b010-cd97-438e-b051-4c90bb68f8bf"><path d="m416.16,211.81l4.95-21.18c6.32,4.27,12.3,6.66,19.13,6.66,11.44,0,17.93-6.15,17.93-22.03v-75.33l24.25-2.9v81.3c0,27.16-15.54,42.02-38.6,42.02-10.93,0-20.16-3.59-27.67-8.54Z" style="fill:#6d0101;"/><path d="m565.46,191.66h-42.36l-11.44,26.48h-26.48l59.1-123.83,59.27,123.83h-26.65l-11.44-26.48Zm-8.88-20.67l-12.3-28.52-12.3,28.52h24.6Z" style="fill:#6d0101;"/><path d="m717.05,223.26l-79.6-74.81v69.69h-24.25v-124.69l79.6,74.47v-67.98l24.25-2.9v126.23Z" style="fill:#6d0101;"/><path d="m802.49,218.13l-37.92-56.37v56.37h-24.25v-118.2l24.25-2.9v54.66l36.21-53.12h28.35l-41.16,57.73,43.04,61.83h-28.52Z" style="fill:#6d0101;"/><path d="m898.68,173.38v44.75h-24.25v-44.75l-37.41-74.81h26.82l22.72,48.68,22.55-48.68h26.99l-37.41,74.81Z" style="fill:#6d0101;"/><path d="m1039.25,218.13l-30.75-49.02v49.02h-24.08v-119.56h34.33c27.67,0,43.73,15.89,43.73,37.58,0,16.74-10.25,29.72-26.65,34.67l32.28,47.31h-28.87Zm-30.75-60.98h7.34c13.83,0,22.03-8.03,22.03-19.47s-8.2-18.96-22.03-18.96h-7.34v38.43Z" style="fill:#6d0101;"/><path d="m1073.5,158.35c0-34.84,27.84-62.17,63.54-62.17s63.54,27.33,63.54,62.17-28.01,62.17-63.54,62.17-63.54-27.33-63.54-62.17Zm102.14,0c0-22.03-16.91-39.11-38.6-39.11s-38.6,17.08-38.6,39.11,16.91,38.94,38.6,38.94,38.6-17.08,38.6-38.94Z" style="fill:#6d0101;"/><path d="m1298.03,185c0,19.64-15.89,33.14-39.63,33.14h-40.99v-119.56h40.14c22.21,0,37.06,12.81,37.06,31.26,0,11.79-6.66,21.18-17.76,26.48,13.15,4.95,21.18,15.37,21.18,28.7Zm-56.54-67.13v30.4h12.47c9.91,0,16.91-6.32,16.91-15.54s-7-14.86-16.91-14.86h-12.47Zm31.77,65.25c0-9.39-7.34-15.71-17.76-15.71h-14.01v31.43h14.01c10.42,0,17.76-6.49,17.76-15.71Z" style="fill:#6d0101;"/><path d="m1308.12,158.35c0-34.84,27.84-62.17,63.54-62.17s63.54,27.33,63.54,62.17-28.01,62.17-63.54,62.17-63.54-27.33-63.54-62.17Zm102.14,0c0-22.03-16.91-39.11-38.6-39.11s-38.6,17.08-38.6,39.11,16.91,38.94,38.6,38.94,38.6-17.08,38.6-38.94Z" style="fill:#6d0101;"/><path d="m1493.16,121.29v96.85h-24.25v-96.85h-31.43l3.59-22.72h79.94l3.42,22.72h-31.26Z" style="fill:#6d0101;"/><path d="m1535.28,100.11l24.25-3.07v121.1h-24.25v-118.03Z" style="fill:#6d0101;"/><path d="m1576.36,158.35c0-34.84,28.01-62.17,64.39-62.17,10.93,0,21.18,2.39,29.89,6.66l-3.76,23.91c-7.52-4.44-16.74-7.34-25.96-7.34-22.38,0-39.46,16.91-39.46,38.94s17.08,38.77,39.46,38.77c9.39,0,18.62-2.9,27.5-8.37l3.76,23.91c-9.91,5.12-21.01,7.86-32.11,7.86-35.87,0-63.71-27.33-63.71-62.17Z" style="fill:#6d0101;"/><path d="m1682.75,207.88l3.76-23.06c11.1,9.05,23.23,14.35,34.5,14.35s16.74-6.32,16.74-14.01c0-6.32-3.59-11.96-15.2-15.71l-7.34-2.39c-21.52-7-29.38-20.5-29.38-36.04,0-19.81,15.54-34.84,38.43-34.84,10.42,0,21.69,2.9,32.97,8.71l-3.59,22.55c-11.1-6.66-21.01-10.25-29.72-10.25-9.39,0-14.69,5.64-14.69,12.81,0,6.49,3.59,11.61,15.88,15.54l7.34,2.39c21.01,6.83,29.21,20.67,29.21,35.87,0,19.3-13.84,36.72-40.31,36.72-15.71,0-28.87-5.98-38.6-12.64Z" style="fill:#6d0101;"/><rect width="343.32" height="317.78" style="fill:#6d0101;"/><path d="m249.5,184.3c3.4-1.96,22.22-12.84,25.16-14.53v-39.65c-18.77-10.83-49.75-28.72-68.67-39.64-1.93,1.11-31.45,18.16-34.33,19.82-4.17-2.41-62.79-36.25-68.67-39.64-8.61,4.98-25.79,14.88-34.33,19.82l59.49,34.34,38.92-11.87c-6.28,3.63-23.72,13.69-29.74,17.17v68.7l29.74,27.77c-18.76-10.84-45.37-26.2-64.08-37l-34.33,19.82c19.04,11,49.56,28.63,68.67,39.65,3.01-1.74,32.28-18.65,34.32-19.83v-39.64s103.01,59.47,103.01,59.47v-39.65c-15.94-9.2-48.24-27.85-64.08-36.99l38.92,11.88Zm-43.51-14.53c-6.57-3.8-28.12-16.25-34.32-19.82,18.36-10.62,45.54-26.3,64.06-37l-20.56,22.47,25.16,14.53c-8.62,4.98-25.79,14.89-34.34,19.82Z" style="fill:#fd4e4f;"/></g></svg>