<?xml version="1.0" encoding="UTF-8"?><svg id="uuid-a906e03f-bcaa-4b82-8a03-92b3a4b528d2" xmlns="http://www.w3.org/2000/svg" viewBox="0 0 206 178.4"><g id="uuid-cd4a848c-8bbd-40e7-bc27-7e4a07398f53"><path d="m180.84,113.64c3.4-1.96,22.22-12.84,25.16-14.53v-39.65c-18.77-10.83-49.75-28.72-68.67-39.64-1.93,1.11-31.45,18.16-34.33,19.82C98.83,37.23,40.21,3.39,34.33,0,25.72,4.98,8.54,14.88,0,19.82l59.49,34.34,38.92-11.87c-6.28,3.63-23.72,13.69-29.74,17.17v68.7l29.74,27.77c-18.76-10.84-45.37-26.2-64.08-37L0,138.75c19.04,11,49.56,28.63,68.67,39.65,3.01-1.74,32.28-18.65,34.32-19.83v-39.64s103.01,59.47,103.01,59.47v-39.65c-15.94-9.2-48.24-27.85-64.08-36.99l38.92,11.88Zm-43.51-14.53c-6.57-3.8-28.12-16.25-34.32-19.82,18.36-10.62,45.54-26.3,64.06-37l-20.56,22.47,25.16,14.53c-8.62,4.98-25.79,14.89-34.34,19.82Z" style="fill:#fff;"/></g></svg>