<?xml version="1.0" encoding="UTF-8"?><svg id="uuid-1e4ff023-affe-44ff-8e44-bf16153e8468" xmlns="http://www.w3.org/2000/svg" viewBox="0 0 343.32 317.78"><g id="uuid-997fc328-6491-4068-8c02-07c4c307465f"><rect width="343.32" height="317.78" style="fill:#fff;"/><path d="m249.5,183.33c3.4-1.96,22.22-12.84,25.16-14.53v-39.65c-18.77-10.83-49.75-28.72-68.67-39.64-1.93,1.11-31.45,18.16-34.33,19.82-4.17-2.41-62.79-36.25-68.67-39.64-8.61,4.98-25.79,14.88-34.33,19.82l59.49,34.34,38.92-11.87c-6.28,3.63-23.72,13.69-29.74,17.17v68.7l29.74,27.77c-18.76-10.84-45.37-26.2-64.08-37l-34.33,19.82c19.04,11,49.56,28.63,68.67,39.65,3.01-1.74,32.28-18.65,34.32-19.83v-39.64s103.01,59.47,103.01,59.47v-39.65c-15.94-9.2-48.24-27.85-64.08-36.99l38.92,11.88Zm-43.51-14.53c-6.57-3.8-28.12-16.25-34.32-19.82,18.36-10.62,45.54-26.3,64.06-37l-20.56,22.47,25.16,14.53c-8.62,4.98-25.79,14.89-34.34,19.82Z"/></g></svg>