<?xml version="1.0" encoding="UTF-8"?><svg id="uuid-2d284e11-d3f5-450f-8d5e-fcb837386a4a" xmlns="http://www.w3.org/2000/svg" viewBox="0 0 343.32 317.78"><g id="uuid-6662f506-13a4-417c-a975-82b5273ec055"><rect x="0" width="343.32" height="317.78"/><path d="m278.91,207.63v-1.64l-1.41-.82-30.08-17.37,30.08-17.36,1.41-.82v-42.92l-1.41-.82-68.67-39.64-1.42-.82-1.41.82-32.92,19-67.25-38.82-1.41-.82-1.42.82-34.34,19.81-4.25,2.46,4.25,2.45,67.25,38.83v72.75l-30.08-17.37-1.41-.82-1.42.82-34.34,19.82-4.25,2.45,4.25,2.46,68.67,39.64,1.42.82,1.42-.82,34.33-19.82,1.42-.82v-36.37l98.74,57.01,4.26,2.46v-44.55Zm-2.83,39.64l-103-59.47v39.65l-34.33,19.82-68.67-39.65,34.34-19.82,25.65,14.81c1.85,1.07,3.71,2.14,5.58,3.22l.35.2,2.75,1.59c10.55,6.09,21,12.13,29.74,17.18l-29.74-27.77v-68.69c6.02-3.48,23.45-13.55,29.74-17.17l-38.92,11.87-59.49-34.35,34.34-19.82,68.66,39.64,34.33-19.82,68.67,39.65v39.64l-25.16,14.53-38.92-11.88c7.43,4.29,18.47,10.66,29.75,17.17l34.33,19.83v39.64Z" style="fill:#fff;"/><path d="m216.59,133.63l20.56-22.47c-8.62,4.98-19.12,11.04-29.74,17.17l-8.75,5.05-4.22,2.44-6.46,3.73-2.26,1.31-4.69,2.71-7.94,4.59,34.32,19.82,34.34-19.82-25.16-14.53Zm-37.84,14.53l28.66-16.55,28.67,16.55-28.67,16.55-28.66-16.55Z" style="fill:#fff;"/></g></svg>