<?xml version="1.0" encoding="UTF-8"?><svg id="uuid-402ca88a-60cd-4a0f-9051-c4e0db974662" xmlns="http://www.w3.org/2000/svg" viewBox="0 0 214.51 186.58"><g id="uuid-8b3124ee-814a-4b4a-9760-c8e98adb9a35"><path d="m214.5,142.03v-1.64l-1.41-.82-30.08-17.37,30.08-17.36,1.41-.82v-42.92l-1.41-.82-68.67-39.64-1.42-.82-1.41.82-32.92,19L41.42.82l-1.41-.82-1.42.82L4.25,20.63l-4.25,2.46,4.25,2.45,67.25,38.83v72.75l-30.08-17.37-1.41-.82-1.42.82-34.34,19.82-4.25,2.45,4.25,2.46,68.67,39.64,1.42.82,1.42-.82,34.33-19.82,1.42-.82v-36.37l98.74,57.01,4.26,2.46v-44.55Zm-2.83,39.64l-103-59.47v39.65l-34.33,19.82L5.67,142.02l34.34-19.82,25.65,14.81c1.85,1.07,3.71,2.14,5.58,3.22l.35.2,2.75,1.59c10.55,6.09,21,12.13,29.74,17.18l-29.74-27.77V62.74c6.02-3.48,23.45-13.55,29.74-17.17l-38.92,11.87L5.67,23.09,40.01,3.27l68.66,39.64,34.33-19.82,68.67,39.65v39.64l-25.16,14.53-38.92-11.88c7.43,4.29,18.47,10.66,29.75,17.17l34.33,19.83v39.64Z" style="fill:#4d4d4d;"/><path d="m152.18,68.03l20.56-22.47c-8.62,4.98-19.12,11.04-29.74,17.17l-8.75,5.05-4.22,2.44-6.46,3.73-2.26,1.31-4.69,2.71-7.94,4.59,34.32,19.82,34.34-19.82-25.16-14.53Zm-37.84,14.53l28.66-16.55,28.67,16.55-28.67,16.55-28.66-16.55Z" style="fill:#4d4d4d;"/></g></svg>