<svg width="233" height="42" viewBox="0 0 233 42" fill="none" xmlns="http://www.w3.org/2000/svg">
<g id="symbol and name" clip-path="url(#clip0_87_3958)">
<g id="uuid-abd3b010-cd97-438e-b051-4c90bb68f8bf">
<path id="Vector" d="M55.0025 27.9943L55.6568 25.195C56.4921 25.7594 57.2824 26.0753 58.1851 26.0753C59.6971 26.0753 60.5549 25.2624 60.5549 23.1636V13.2075L63.7599 12.8242V23.5694C63.7599 27.159 61.706 29.123 58.6583 29.123C57.2137 29.123 55.9938 28.6486 55.0012 27.9943H55.0025Z" fill="#6D0101"/>
<path id="Vector_2" d="M74.7351 25.331H69.1365L67.6245 28.8308H64.1248L71.9358 12.4646L79.7694 28.8308H76.2471L74.7351 25.331ZM73.5615 22.5992L71.9358 18.8298L70.3102 22.5992H73.5615Z" fill="#6D0101"/>
<path id="Vector_3" d="M94.7702 29.5077L84.2497 19.6203V28.831H81.0447V12.3511L91.5652 22.1935V13.2088L94.7702 12.8256V29.509V29.5077Z" fill="#6D0101"/>
<path id="Vector_4" d="M106.063 28.8296L101.051 21.3794V28.8296H97.8457V13.2075L101.051 12.8242V20.0485L105.837 13.0278H109.583L104.143 20.6578L109.832 28.8296H106.063Z" fill="#6D0101"/>
<path id="Vector_5" d="M118.776 22.915V28.8295H115.571V22.915L110.626 13.0276H114.171L117.174 19.4615L120.154 13.0276H123.721L118.777 22.915H118.776Z" fill="#6D0101"/>
<path id="Vector_6" d="M137.354 28.8295L133.29 22.3506V28.8295H130.108V13.0276H134.645C138.302 13.0276 140.425 15.1277 140.425 17.9944C140.425 20.2069 139.07 21.9224 136.902 22.5766L141.169 28.8295H137.353H137.354ZM133.29 20.7699H134.26C136.088 20.7699 137.172 19.7086 137.172 18.1966C137.172 16.6846 136.088 15.6908 134.26 15.6908H133.29V20.7699Z" fill="#6D0101"/>
<path id="Vector_7" d="M141.881 20.9287C141.881 16.324 145.561 12.7119 150.279 12.7119C154.997 12.7119 158.677 16.324 158.677 20.9287C158.677 25.5334 154.975 29.1455 150.279 29.1455C145.583 29.1455 141.881 25.5334 141.881 20.9287ZM155.381 20.9287C155.381 18.0171 153.146 15.7597 150.279 15.7597C147.412 15.7597 145.177 18.0171 145.177 20.9287C145.177 23.8404 147.412 26.0753 150.279 26.0753C153.146 26.0753 155.381 23.8179 155.381 20.9287Z" fill="#6D0101"/>
<path id="Vector_8" d="M171.557 24.4507C171.557 27.0464 169.457 28.8307 166.319 28.8307H160.901V13.0288H166.207C169.142 13.0288 171.105 14.7219 171.105 17.1603C171.105 18.7186 170.224 19.9596 168.757 20.6601C170.495 21.3144 171.557 22.6915 171.557 24.4533V24.4507ZM164.084 15.5783V19.5962H165.732C167.042 19.5962 167.967 18.7609 167.967 17.5423C167.967 16.3237 167.042 15.5783 165.732 15.5783H164.084ZM168.283 24.2022C168.283 22.9612 167.313 22.1259 165.936 22.1259H164.084V26.2799H165.936C167.313 26.2799 168.283 25.4221 168.283 24.2035V24.2022Z" fill="#6D0101"/>
<path id="Vector_9" d="M172.89 20.9287C172.89 16.324 176.57 12.7119 181.288 12.7119C186.006 12.7119 189.686 16.324 189.686 20.9287C189.686 25.5334 185.984 29.1455 181.288 29.1455C176.592 29.1455 172.89 25.5334 172.89 20.9287ZM186.39 20.9287C186.39 18.0171 184.155 15.7597 181.288 15.7597C178.421 15.7597 176.186 18.0171 176.186 20.9287C176.186 23.8404 178.421 26.0753 181.288 26.0753C184.155 26.0753 186.39 23.8179 186.39 20.9287Z" fill="#6D0101"/>
<path id="Vector_10" d="M197.346 16.0304V28.8308H194.141V16.0304H189.987L190.462 13.0276H201.027L201.479 16.0304H197.348H197.346Z" fill="#6D0101"/>
<path id="Vector_11" d="M202.913 13.2312L206.118 12.8254V28.8309H202.913V13.2312Z" fill="#6D0101"/>
<path id="Vector_12" d="M208.343 20.9287C208.343 16.324 212.045 12.7119 216.853 12.7119C218.298 12.7119 219.652 13.0278 220.803 13.5921L220.307 16.7523C219.313 16.1654 218.094 15.7822 216.875 15.7822C213.918 15.7822 211.66 18.0171 211.66 20.9287C211.66 23.8404 213.918 26.0528 216.875 26.0528C218.117 26.0528 219.336 25.6696 220.51 24.9466L221.007 28.1067C219.697 28.7834 218.23 29.1455 216.763 29.1455C212.022 29.1455 208.343 25.5334 208.343 20.9287Z" fill="#6D0101"/>
<path id="Vector_13" d="M222.404 27.475L222.901 24.4272C224.368 25.6233 225.971 26.3238 227.461 26.3238C228.95 26.3238 229.673 25.4885 229.673 24.4721C229.673 23.6368 229.199 22.8914 227.664 22.3958L226.694 22.0799C223.85 21.1547 222.811 19.3705 222.811 17.3166C222.811 14.6984 224.865 12.7119 227.89 12.7119C229.267 12.7119 230.757 13.0952 232.248 13.8631L231.773 16.8435C230.306 15.9632 228.997 15.4887 227.845 15.4887C226.604 15.4887 225.904 16.2342 225.904 17.1818C225.904 18.0396 226.378 18.7163 228.003 19.2357L228.973 19.5516C231.75 20.4543 232.833 22.2834 232.833 24.2924C232.833 26.8432 231.004 29.1455 227.506 29.1455C225.429 29.1455 223.69 28.3552 222.404 27.475Z" fill="#6D0101"/>
<path id="Vector_14" d="M45.3755 0H0V42H45.3755V0Z" fill="#6D0101"/>
<path id="Vector_15" d="M32.9758 24.3586C33.4251 24.0995 35.9125 22.6615 36.3011 22.4382V17.1978C33.8203 15.7664 29.7258 13.4019 27.2252 11.9587C26.9701 12.1054 23.0685 14.3588 22.6879 14.5782C22.1368 14.2597 14.3891 9.78716 13.612 9.33911C12.474 9.9973 10.2034 11.3058 9.07471 11.9587L16.9373 16.4973L22.0813 14.9284C21.2512 15.4082 18.9463 16.7378 18.1506 17.1978V26.2776L22.0813 29.9479C19.6018 28.5152 16.0848 26.4851 13.612 25.0577L9.07471 27.6773C11.5912 29.1311 15.6249 31.4612 18.1506 32.9177C18.5484 32.6877 22.417 30.4528 22.6866 30.2968V25.0577L36.3011 32.9177V27.6773C34.1943 26.4613 29.9254 23.9964 27.8318 22.7884L32.9758 24.3586ZM27.2252 22.4382C26.3568 21.9359 23.5087 20.2905 22.6892 19.8186C25.1158 18.415 28.7081 16.3426 31.1558 14.9284L28.4385 17.8982L31.7638 19.8186C30.6245 20.4768 28.3552 21.7866 27.2252 22.4382Z" fill="#FD4E4F"/>
</g>
</g>
<defs>
<clipPath id="clip0_87_3958">
<rect width="232.833" height="42" fill="white"/>
</clipPath>
</defs>
</svg>
